# xmcd
#
# Track frame offsets:
#	150
#	17048
#	39101
#	52606
#	63631
#	74809
#	90357
#	108249
#	123214
#	142069
#	158891
#	177318
#	194013
#	210194
#	222920
#	237793
#	254687
#	269255
#	285474
#
# Disc length: 4077 seconds
#
# Revision: 1
# Processed by: cddbd v1.5.2PL0 Copyright (c) Steve Scherf et al.
# Submitted via: audiograbber 1.83.01
#
DISCID=120feb13
DTITLE=Theodoro e Sampaio - Theodoro e Sampaio ao Vivo
DYEAR=2004
DGENRE=Sertanejo e Country
TTITLE0=O Garrafão
TTITLE1=De Parede E Meia/Besta De Paixão
TTITLE2=É Mentira Dela
TTITLE3=Vou Beber De Novo
TTITLE4=Garanhão Da Madrugada
TTITLE5=Se A Casa Cair
TTITLE6=Tô Querendo Mais
TTITLE7=Doidão Por Você
TTITLE8=Paixão Proibida
TTITLE9=A Gostosona (A Gauchona)
TTITLE10=Quando A Saudade Aperta
TTITLE11=Vírus Da Paixão
TTITLE12=Vestido De Seda
TTITLE13=Aqui Pra Ela
TTITLE14=Mulher Chorona
TTITLE15=Pinga Ni Mim
TTITLE16=O Trem Tá Feio
TTITLE17=musica 18
TTITLE18=musica 19
EXTD=
EXTT0=
EXTT1=
EXTT2=
EXTT3=
EXTT4=
EXTT5=
EXTT6=
EXTT7=
EXTT8=
EXTT9=
EXTT10=
EXTT11=
EXTT12=
EXTT13=
EXTT14=
EXTT15=
EXTT16=
EXTT17=
EXTT18=
PLAYORDER=
